# xmcd CD database file
#
# Track frame offsets:
#	150
#	15513
#	31442
#	43624
#	60190
#	70690
#	82833
#	96773
#	112958
#	125583
#	150905
#
# Disc length: 2310 seconds
#
# Revision: 0
# Processed by: cddbd v1.5.2PL0 Copyright (c) Steve Scherf et al.
# Submitted via: cdripper 1.0.8
#
DISCID=7409040b
DTITLE=Mitch Kashmar - Crazy Mixed Up World
DYEAR=1999
DGENRE=Blues
TTITLE0=Crazy Mixed Up world
TTITLE1=Rocker
TTITLE2=It Ain't Right
TTITLE3=Who
TTITLE4=I don't Play
TTITLE5=The Toddle
TTITLE6=Mellow Down Easy
TTITLE7=Dead presidents
TTITLE8=Roller Coaster
TTITLE9=Homeboy
TTITLE10=Ode To Billy Joe
EXTD=YEAR: 1999
EXTT0=
EXTT1=
EXTT2=
EXTT3=
EXTT4=
EXTT5=
EXTT6=
EXTT7=
EXTT8=
EXTT9=
EXTT10=
PLAYORDER=
